HIERARCHY
ROOT Hips
{
	OFFSET -0.001795 -0.223333 0.028219
	CHANNELS 6 Xposition Yposition Zposition Zrotation Yrotation Xrotation 
	JOINT LeftUpLeg
	{
		OFFSET 0.069520 -0.091406 -0.006815
		CHANNELS 3 Zrotation Yrotation Xrotation
		JOINT LeftLeg
		{
			OFFSET 0.034277 -0.375199 -0.004496
			CHANNELS 3 Zrotation Yrotation Xrotation
			JOINT LeftFoot
			{
				OFFSET -0.013596 -0.397961 -0.043693
				CHANNELS 3 Zrotation Yrotation Xrotation
				JOINT LeftToe
				{
					OFFSET 0.026358 -0.055791 0.119288
					CHANNELS 3 Zrotation Yrotation Xrotation
					End Site
					{
						OFFSET 0.000000 0.000000 0.000000
					}
				}
			}
		}
	}
	JOINT RightUpLeg
	{
		OFFSET -0.067670 -0.090522 -0.004320
		CHANNELS 3 Zrotation Yrotation Xrotation
		JOINT RightLeg
		{
			OFFSET -0.038290 -0.382569 -0.008850
			CHANNELS 3 Zrotation Yrotation Xrotation
			JOINT RightFoot
			{
				OFFSET 0.015774 -0.398415 -0.042312
				CHANNELS 3 Zrotation Yrotation Xrotation
				JOINT RightToe
				{
					OFFSET -0.025372 -0.048144 0.123348
					CHANNELS 3 Zrotation Yrotation Xrotation
					End Site
					{
						OFFSET 0.000000 0.000000 0.000000
					}
				}
			}
		}
	}
	JOINT Spine
	{
		OFFSET -0.002533 0.108963 -0.026696
		CHANNELS 3 Zrotation Yrotation Xrotation
		JOINT Spine1
		{
			OFFSET 0.005487 0.135180 0.001092
			CHANNELS 3 Zrotation Yrotation Xrotation
			JOINT Spine2
			{
				OFFSET 0.001457 0.052922 0.025425
				CHANNELS 3 Zrotation Yrotation Xrotation
				JOINT Neck
				{
					OFFSET -0.002778 0.213870 -0.042857
					CHANNELS 3 Zrotation Yrotation Xrotation
					JOINT Head
					{
						OFFSET 0.005152 0.064970 0.051349
						CHANNELS 3 Zrotation Yrotation Xrotation
						End Site
						{
							OFFSET 0.000000 0.000000 0.000000
						}
					}
				}
				JOINT LeftShoulder
				{
					OFFSET 0.078845 0.121749 -0.034090
					CHANNELS 3 Zrotation Yrotation Xrotation
					JOINT LeftArm
					{
						OFFSET 0.090977 0.030469 -0.008868
						CHANNELS 3 Zrotation Yrotation Xrotation
						JOINT LeftForeArm
						{
							OFFSET 0.259612 -0.012772 -0.027456
							CHANNELS 3 Zrotation Yrotation Xrotation
							JOINT LeftHand
							{
								OFFSET 0.249234 0.008986 -0.001171
								CHANNELS 3 Zrotation Yrotation Xrotation
								End Site
								{
									OFFSET 0.000000 0.000000 0.000000
								}
							}
						}
					}
				}
				JOINT RightShoulder
				{
					OFFSET -0.081759 0.118833 -0.038615
					CHANNELS 3 Zrotation Yrotation Xrotation
					JOINT RightArm
					{
						OFFSET -0.096012 0.032551 -0.009143
						CHANNELS 3 Zrotation Yrotation Xrotation
						JOINT RightForeArm
						{
							OFFSET -0.253742 -0.013329 -0.021401
							CHANNELS 3 Zrotation Yrotation Xrotation
							JOINT RightHand
							{
								OFFSET -0.255298 0.007772 -0.005559
								CHANNELS 3 Zrotation Yrotation Xrotation
								End Site
								{
									OFFSET 0.000000 0.000000 0.000000
								}
							}
						}
					}
				}
			}
		}
	}
}
MOTION
Frames: 9
Frame Time: 0.050000
0.000000 0.961553 0.000000 -1.880648 -11.374852 9.195251 -0.644778 -0.525868 -5.470812 -1.560554 0.416099 19.022887 3.753814 8.399313 2.205850 0.000000 0.000000 0.000000 2.760192 0.480857 -5.449038 2.012998 0.066939 6.634807 -1.373504 -5.549498 3.847365 0.000000 0.000000 0.000000 6.985524 -1.016548 8.308765 -3.847067 1.318968 -24.260474 0.095732 11.570789 29.144390 10.847427 -3.342197 -29.722293 0.000000 0.000000 0.000000 -9.494365 0.179989 -1.022089 -62.602551 -0.031148 -10.281892 -8.289987 -40.996537 5.329907 0.000000 0.000000 0.000000 19.255282 -5.549455 -3.174537 63.267835 4.663560 -6.301170 8.170639 40.362082 5.920773 0.000000 0.000000 0.000000 
0.001544 0.961055 0.004702 -2.378872 -12.676262 10.350339 0.349985 -0.777386 -9.420849 -2.658555 1.190297 24.871246 4.836318 10.200070 -2.487022 0.000000 0.000000 0.000000 3.444078 0.511741 -5.867061 0.925816 0.235434 6.849045 -1.606104 -4.499981 0.913932 0.000000 0.000000 0.000000 6.774740 -1.122203 9.718229 -3.906477 1.322166 -25.102149 0.746167 11.942570 29.880213 9.860527 -2.868363 -29.880856 0.000000 0.000000 0.000000 -10.368140 0.132267 -1.006828 -62.660864 -0.910248 -9.859450 -4.497821 -41.328284 4.077770 0.000000 0.000000 0.000000 19.521436 -4.991337 -2.985188 63.147268 5.586391 -5.918490 8.277784 41.079803 6.051591 0.000000 0.000000 0.000000 
0.002903 0.959761 0.012292 -2.221258 -15.226274 11.667990 0.610148 -0.984236 -13.996772 -3.384025 2.491244 32.441994 4.538934 9.365081 -3.991090 0.000000 0.000000 0.000000 2.965520 0.704755 -7.477286 -0.225847 0.513844 8.388694 -1.620996 -2.993705 -1.407978 0.000000 0.000000 0.000000 6.368809 -1.153949 10.894056 -4.838065 1.481296 -25.195486 1.265177 12.004645 30.627170 9.557154 -2.876171 -30.649124 0.000000 0.000000 0.000000 -12.148796 1.813059 -1.716812 -61.943869 -2.852386 -8.719982 -5.089706 -39.072856 4.283499 0.000000 0.000000 0.000000 21.193677 -3.651257 -2.758641 59.904320 8.284231 -4.606587 10.068747 39.354094 6.104970 0.000000 0.000000 0.000000 
0.003966 0.957055 0.023478 -1.603084 -14.256568 12.715101 -0.721631 -1.370383 -18.281801 -1.051807 2.059465 41.051004 4.004666 7.908788 -4.090125 0.000000 0.000000 0.000000 2.004989 0.848387 -8.564979 0.549722 0.542182 10.601295 -2.902477 -4.943183 -3.527223 0.000000 0.000000 0.000000 5.912980 -1.239535 12.710468 -4.190830 1.360978 -25.655564 0.128397 11.567794 31.128568 8.933509 -2.232556 -32.588864 0.000000 0.000000 0.000000 -15.048355 -0.008487 -1.103725 -59.477266 -3.409484 -8.181652 -3.462255 -40.964811 3.839514 0.000000 0.000000 0.000000 22.126118 -2.976708 -2.367993 57.920627 8.091884 -4.701515 11.005799 40.048640 6.550259 0.000000 0.000000 0.000000 
0.005004 0.951106 0.037527 -1.748042 -15.933152 13.650520 -0.413967 -1.394889 -21.990689 -1.717704 3.404792 46.280511 5.921730 12.256322 -4.133227 0.000000 0.000000 0.000000 1.865252 0.889898 -8.995372 -0.324020 0.791706 11.607362 -3.518668 -4.421113 -6.396593 0.000000 0.000000 0.000000 5.461829 -1.254689 14.705281 -4.809915 1.452353 -24.425472 0.597526 13.006293 30.239803 9.716461 -2.431474 -33.097140 0.000000 0.000000 0.000000 -15.379800 -1.119341 -0.691215 -60.107727 -3.676958 -8.079548 -2.636906 -40.829187 3.469291 0.000000 0.000000 0.000000 22.111179 -3.067177 -2.257242 57.762528 7.190076 -5.081758 9.523800 40.889293 6.229081 0.000000 0.000000 0.000000 
0.006503 0.944523 0.055390 -1.913501 -16.576356 15.441572 -0.546332 -1.449574 -26.134115 -1.142934 3.739656 50.642291 6.230998 12.857718 -4.302448 0.000000 0.000000 0.000000 2.253895 1.112179 -10.669869 -1.482123 1.171679 13.258499 -4.322075 -4.549448 -9.177434 0.000000 0.000000 0.000000 4.950559 -1.273026 17.483396 -5.235168 1.544513 -26.363453 0.463220 12.557077 31.132696 9.154099 -2.050049 -34.759282 0.000000 0.000000 0.000000 -16.865966 -1.270974 -0.540432 -58.403640 -4.147441 -7.698545 -2.520759 -42.042791 3.638984 0.000000 0.000000 0.000000 22.833437 -1.989879 -1.903516 55.755065 5.461117 -5.797600 10.444299 42.500946 6.673143 0.000000 0.000000 0.000000 
0.008080 0.938768 0.077162 -1.676218 -16.290661 17.174913 -0.719918 -1.523328 -28.836632 -1.496548 3.860585 51.198078 6.968614 14.463064 -5.336458 0.000000 0.000000 0.000000 2.100519 1.311536 -12.138615 -2.182261 1.558331 15.520188 -5.039441 -4.822270 -11.838101 0.000000 0.000000 0.000000 4.545198 -1.267287 19.449341 -6.246231 1.748563 -25.256020 0.210304 10.773580 30.542890 8.331422 -1.804036 -35.164413 0.000000 0.000000 0.000000 -17.349986 -1.568921 -0.086159 -58.231656 -4.112276 -7.609312 -1.883728 -44.761910 3.852506 0.000000 0.000000 0.000000 21.855622 -2.149129 -2.380435 56.094509 3.644761 -6.490865 12.313391 43.046894 7.257866 0.000000 0.000000 0.000000 
0.009168 0.931584 0.102548 -1.982959 -15.481545 19.004821 0.427200 -1.283132 -32.573432 -2.673086 4.576877 53.282710 7.311232 15.124345 -4.826066 0.000000 0.000000 0.000000 2.250470 1.677737 -14.576120 -3.086879 2.319669 19.904172 -5.080496 -5.366326 -11.896777 0.000000 0.000000 0.000000 3.287085 -1.050604 22.776121 -6.211926 1.746060 -25.568390 -0.648181 9.156834 30.813292 8.317519 -1.551332 -37.859405 0.000000 0.000000 0.000000 -16.185350 -1.068403 -0.100699 -58.641543 -5.484315 -6.949520 -3.890453 -47.484492 5.231113 0.000000 0.000000 0.000000 21.924793 -3.113349 -3.258503 55.741971 1.465822 -7.350644 14.927943 43.745706 8.277102 0.000000 0.000000 0.000000 
0.009366 0.921535 0.134065 -1.534680 -13.085056 20.968136 -0.875557 -1.919027 -36.836669 -2.299645 3.475670 54.572971 7.494629 15.370946 -7.818751 0.000000 0.000000 0.000000 0.489662 2.387513 -20.177637 -0.004121 2.637396 30.813247 -5.599747 -7.973507 -13.042041 0.000000 0.000000 0.000000 2.051463 -0.859664 25.201041 -7.134014 1.955771 -24.807469 -0.965807 5.632688 30.482563 8.837601 -1.833370 -39.267979 0.000000 0.000000 0.000000 -15.536059 -1.143949 0.333310 -56.336662 -5.620484 -6.567307 -4.790569 -50.994766 6.302800 0.000000 0.000000 0.000000 23.004861 -4.452075 -4.879831 54.996080 0.003219 -7.694268 17.843245 43.773529 9.132550 0.000000 0.000000 0.000000 
